<?xml version="1.0" encoding="UTF-8"?>
<svg id="Layer_1" xmlns="http://www.w3.org/2000/svg" version="1.1" viewBox="0 0 56.69 56.69">
  <!-- Generator: Adobe Illustrator 30.1.0, SVG Export Plug-In . SVG Version: 2.1.1 Build 136)  -->
  <defs>
    <style>
      .st0 {
        fill: #fff;
      }

      .st1 {
        fill: #27aae1;
      }
    </style>
  </defs>
  <circle class="st1" cx="28.35" cy="28.35" r="28.35"/>
  <path class="st0" d="M49.61,45.49c0,.19-.05.36-.16.51-.1.15-.29.27-.56.37-.27.09-.63.17-1.09.23s-1.02.08-1.72.08-1.24-.03-1.69-.08-.81-.13-1.07-.23c-.26-.09-.45-.22-.56-.37-.11-.15-.17-.32-.17-.51V15.8h-.06l-10.57,29.66c-.08.24-.2.45-.37.61-.17.16-.4.29-.69.38-.29.09-.66.16-1.11.18s-1,.04-1.64.04-1.18-.02-1.64-.07c-.45-.05-.82-.12-1.11-.23-.29-.1-.52-.23-.69-.38-.17-.15-.28-.33-.34-.54L14.16,15.8h-.06v29.69c0,.19-.05.36-.16.51-.1.15-.3.27-.58.37-.28.09-.64.17-1.09.23-.44.06-1.01.08-1.71.08s-1.24-.03-1.69-.08-.81-.13-1.09-.23c-.27-.09-.46-.22-.56-.37-.1-.15-.16-.32-.16-.51V12.98c0-.96.25-1.69.76-2.2s1.18-.76,2.03-.76h4.85c.86,0,1.61.07,2.23.21s1.16.38,1.61.7c.45.33.83.76,1.13,1.3.3.54.56,1.2.79,1.99l7.89,21.74h.11l8.18-21.68c.24-.79.51-1.46.8-2,.29-.55.63-.99,1.02-1.33s.84-.58,1.37-.72,1.14-.21,1.83-.21h4.99c.51,0,.94.07,1.31.2.37.13.67.32.9.58s.41.56.54.93.18.79.18,1.25v32.51Z"/>
</svg>